{"glyphs":{":":{"x_min":0,"x_max":246,"ha":246,"o":"m 205 363 q 184 363 156 394 q 128 424 128 443 q 128 462 140 480 q 153 499 166 499 q 183 499 204 452 q 224 404 224 379 q 224 374 218 368 q 212 363 205 363 z m 112 -6 q 91 -6 63 24 q 35 55 35 74 q 35 93 48 111 q 60 129 73 129 q 90 129 110 82 q 130 34 130 9 q 130 4 124 -1 q 118 -6 112 -6 z"},"$":{"x_min":0,"x_max":503,"ha":503,"o":"m 493 571 l 448 579 q 423 579 390 574 q 359 479 317 342 q 360 311 385 290 q 410 270 432 240 q 455 209 455 182 q 455 114 383 67 q 311 20 216 17 q 187 -62 169 -62 q 154 -62 154 -38 q 154 -14 163 22 q 103 36 61 79 q 19 122 19 148 q 19 173 36 173 q 43 173 63 152 q 124 86 176 76 q 183 101 252 318 q 192 360 160 392 q 129 423 129 450 q 129 478 137 502 q 145 527 156 536 q 220 594 348 625 q 374 703 386 724 q 398 745 415 745 q 432 745 432 722 q 432 700 424 676 l 411 637 q 439 639 449 639 q 474 639 489 619 q 504 599 504 585 q 504 571 493 571 z m 300 285 q 286 239 264 169 q 243 99 236 76 q 303 84 347 113 q 391 142 391 182 q 391 221 300 285 z m 270 375 q 295 457 327 560 q 267 543 227 517 q 187 491 187 464 q 187 436 270 375 z"},"?":{"x_min":0,"x_max":469,"ha":469,"o":"m 190 -5 q 168 -5 140 23 q 113 51 113 70 q 113 88 126 105 q 139 122 154 122 q 168 122 188 77 q 209 32 209 9 q 209 5 202 0 q 196 -5 190 -5 z m 456 631 q 456 593 428 547 q 399 501 364 465 q 264 364 243 312 q 222 261 214 248 q 207 235 198 235 q 178 235 178 275 q 178 315 200 352 q 222 390 254 424 q 286 459 318 493 q 393 574 393 634 q 393 672 366 697 q 339 722 302 722 q 265 722 237 699 q 209 676 209 642 q 209 631 213 622 q 217 614 217 608 q 217 601 206 596 q 196 592 186 592 q 177 592 164 612 q 150 631 150 646 q 150 699 196 740 q 242 781 304 781 q 366 781 411 740 q 456 699 456 631 z"},"<":{"x_min":0,"x_max":574,"ha":574,"o":"m 521 508 q 540 508 550 498 q 560 489 560 483 q 560 477 559 474 q 558 472 556 470 q 553 468 551 466 q 549 465 545 464 q 541 462 538 461 q 535 460 530 458 q 525 457 468 438 q 412 420 304 375 q 197 330 197 307 q 197 290 350 222 q 504 154 504 140 q 504 125 473 125 q 442 125 356 158 q 270 191 194 234 q 119 277 119 299 q 119 312 131 332 q 143 351 155 361 q 201 398 338 453 q 474 508 521 508 z"},"'":{"x_min":0,"x_max":104,"ha":104,"o":"m 49 806 q 49 826 59 826 q 69 826 84 814 q 98 801 98 792 q 98 745 84 656 q 70 566 56 566 q 46 566 38 578 q 29 589 29 596 q 29 602 39 676 q 49 749 49 806 z"},"=":{"x_min":0,"x_max":609,"ha":609,"o":"m 559 272 q 559 258 505 247 q 451 236 300 216 q 150 196 82 196 q 72 197 64 210 q 55 223 55 232 q 55 249 250 272 q 446 294 502 294 q 559 294 559 272 z m 584 466 q 584 454 554 446 q 523 439 341 416 q 159 394 109 394 q 99 394 90 407 q 81 420 81 430 q 82 449 272 469 q 462 489 523 489 q 584 489 584 466 z"},"a":{"x_min":0,"x_max":447,"ha":447,"o":"m 362 317 q 371 307 371 291 q 371 227 360 170 q 350 113 347 79 q 344 45 340 31 q 337 17 328 17 q 311 17 306 50 q 301 82 301 150 q 270 95 222 56 q 175 17 130 17 q 84 17 42 52 q 0 87 0 129 q 0 193 44 282 q 89 370 156 436 q 223 502 275 502 q 327 502 356 459 q 384 416 384 382 q 384 347 362 317 z m 332 329 q 331 336 331 362 q 331 389 320 416 q 308 443 285 443 q 247 443 194 386 q 140 328 101 252 q 62 177 62 128 q 62 106 82 91 q 103 76 126 76 q 178 76 232 143 q 286 210 314 308 q 317 325 332 329 z"},"L":{"x_min":0,"x_max":546,"ha":546,"o":"m 263 640 q 263 572 200 354 q 136 137 136 116 q 136 95 146 86 q 155 77 169 77 q 293 77 430 118 q 475 131 482 131 q 490 131 492 130 q 494 128 494 121 q 494 91 387 54 q 280 18 186 18 q 140 18 106 42 q 73 65 73 101 q 73 137 139 373 q 205 609 205 677 q 205 694 208 700 q 211 706 222 706 q 234 706 248 685 q 263 664 263 640 z"},"3":{"x_min":0,"x_max":584,"ha":584,"o":"m 67 45 q 67 51 128 62 q 189 72 262 86 q 336 101 397 140 q 458 179 458 234 q 458 269 393 290 q 328 311 262 322 q 197 332 197 341 q 197 350 200 353 q 203 364 234 380 q 264 397 304 416 q 344 435 384 458 q 424 482 452 515 q 479 548 479 585 q 479 650 405 650 q 348 650 264 602 q 236 586 230 586 q 224 586 208 600 q 193 613 193 621 q 193 645 268 676 q 344 706 402 706 q 460 706 502 666 q 543 625 543 576 q 543 528 498 482 q 422 407 290 359 q 396 353 466 320 q 535 286 535 230 q 535 174 476 124 q 416 74 330 46 q 245 18 156 18 q 67 18 67 45 z"},";":{"x_min":0,"x_max":306,"ha":306,"o":"m 143 -2 q 143 -57 93 -120 q 43 -182 10 -182 q -5 -182 -5 -172 q -5 -162 8 -146 q 21 -129 37 -113 q 53 -97 66 -70 q 79 -44 79 -17 q 79 -1 58 11 q 38 23 38 35 q 38 47 49 63 q 60 79 74 79 q 101 79 122 55 q 143 31 143 -2 z m 208 363 q 187 363 159 394 q 131 424 131 443 q 131 462 144 480 q 157 499 169 499 q 186 499 206 452 q 227 404 227 379 q 227 374 221 368 q 215 363 208 363 z"},"J":{"x_min":0,"x_max":458,"ha":458,"o":"m 5 143 q 5 161 20 161 q 26 161 50 138 q 75 115 111 92 q 147 69 181 69 q 220 69 250 141 q 279 213 332 401 q 384 589 432 660 q 370 651 286 627 q 203 603 187 603 q 157 603 157 619 q 157 644 276 680 q 394 715 441 715 q 460 715 474 708 q 488 700 488 685 q 488 670 475 632 q 462 595 435 519 q 408 443 385 366 q 317 133 285 73 q 253 13 192 13 q 130 13 68 62 q 5 112 5 143 z"},"V":{"x_min":0,"x_max":532,"ha":532,"o":"m 563 704 q 572 704 582 697 q 591 690 591 677 q 591 664 572 632 q 554 600 509 524 q 464 449 428 377 q 391 305 360 241 q 330 177 313 140 q 296 103 280 71 q 252 12 237 12 q 219 12 192 75 q 166 138 122 380 q 78 622 78 680 q 78 704 89 704 q 103 704 118 686 q 133 669 139 650 q 145 631 174 432 q 202 232 240 105 q 288 241 410 472 q 532 704 563 704 z"},"\"":{"x_min":0,"x_max":249,"ha":249,"o":"m 207 826 q 216 826 230 814 q 243 801 243 792 q 243 743 230 654 q 217 566 203 566 q 194 566 186 577 q 177 588 177 595 q 177 602 186 676 q 195 749 195 806 q 195 826 207 826 z m 59 826 q 68 826 82 814 q 96 801 96 792 q 96 745 82 656 q 69 566 56 566 q 46 566 38 577 q 29 588 29 595 q 29 602 38 676 q 47 749 47 806 q 47 826 59 826 z"},"7":{"x_min":0,"x_max":455,"ha":455,"o":"m 448 693 q 461 685 470 664 q 478 643 478 624 q 478 604 453 557 q 428 510 376 428 q 324 346 302 308 q 280 271 232 185 q 185 99 161 60 q 137 20 129 20 q 121 20 114 34 q 107 48 107 59 q 107 92 261 346 q 415 600 415 625 q 415 634 404 641 q 392 648 366 648 q 340 648 260 634 q 181 621 162 621 q 143 621 124 640 q 106 660 106 675 q 106 678 151 686 q 269 707 348 707 q 426 707 448 693 z"},"S":{"x_min":0,"x_max":519,"ha":519,"o":"m 452 211 q 452 131 382 78 q 311 25 207 25 q 128 25 67 73 q 6 121 6 160 q 6 177 18 177 q 25 177 48 154 q 70 130 108 106 q 146 82 191 82 q 277 82 332 119 q 387 156 387 208 q 387 239 350 284 q 314 328 270 366 q 227 403 190 447 q 154 491 154 521 q 154 538 163 561 q 172 584 182 597 q 213 635 294 670 q 375 704 426 704 q 451 704 468 692 q 485 680 485 666 q 485 658 464 654 q 444 649 401 640 q 358 630 321 615 q 210 570 210 523 q 210 500 331 392 q 376 352 414 300 q 452 249 452 211 z"},"}":{"x_min":0,"x_max":490,"ha":490,"o":"m 120 8 q 151 -30 210 -30 q 274 -30 288 72 q 295 116 299 163 q 309 283 348 322 q 315 337 294 365 q 273 393 273 424 q 273 456 300 492 q 326 529 358 559 q 390 589 416 628 q 443 668 443 706 q 443 744 413 771 q 383 798 350 798 q 317 798 296 786 q 276 773 264 758 q 234 717 224 717 q 216 717 203 729 q 190 741 190 749 q 190 784 244 818 q 297 853 352 853 q 407 853 456 808 q 505 764 505 716 q 505 667 478 622 q 451 577 418 546 q 331 462 331 424 q 331 386 375 366 q 395 358 419 354 q 443 350 444 347 q 446 344 446 342 q 446 322 419 313 q 358 289 348 151 q 344 96 336 42 q 329 -11 300 -47 q 271 -83 218 -83 q 166 -83 124 -56 q 81 -29 81 -4 q 81 20 95 20 q 109 20 120 8 z"},"Z":{"x_min":0,"x_max":606,"ha":606,"o":"m 562 581 q 562 539 494 464 q 426 390 345 324 q 128 145 128 111 q 128 102 136 93 q 145 84 161 84 q 217 84 348 102 q 478 121 498 121 q 517 121 520 118 q 524 114 524 103 q 524 88 472 70 q 420 52 331 39 q 242 26 153 26 q 120 26 92 51 q 65 76 65 106 q 65 137 110 189 q 155 241 220 296 q 284 351 348 406 q 502 537 502 594 q 502 611 450 624 q 398 637 346 637 q 293 637 242 629 q 191 621 176 621 q 161 621 144 636 q 127 652 126 667 q 124 681 196 693 q 232 699 278 699 q 464 699 534 633 q 562 606 562 581 z"},"x":{"x_min":0,"x_max":401,"ha":401,"o":"m 328 17 q 292 17 184 192 q 67 49 39 27 q 27 17 18 17 q 10 17 -2 28 q -15 39 -15 46 q -15 54 8 77 q 98 170 155 240 q 41 440 41 483 q 41 494 44 498 q 47 502 60 502 q 74 502 94 492 q 114 482 114 468 q 114 420 189 284 q 311 445 338 474 q 365 502 378 502 q 392 502 404 492 q 416 483 416 474 q 416 466 410 460 q 405 453 391 440 q 377 428 364 414 q 350 399 328 372 q 306 345 276 306 l 218 234 q 226 221 241 197 q 256 173 267 156 q 278 138 302 105 q 325 72 336 56 q 347 39 347 32 q 347 26 341 22 q 335 17 328 17 z"},")":{"x_min":0,"x_max":490,"ha":490,"o":"m 411 547 q 411 456 384 368 q 356 280 313 214 q 270 148 220 92 q 169 35 121 -2 q 20 -78 -12 -78 q -28 -78 -28 -64 q -28 -56 0 -31 q 27 -6 68 28 q 109 63 158 116 q 206 170 247 228 q 288 287 316 366 q 343 446 343 518 q 343 590 326 638 q 309 686 284 714 q 260 741 236 760 q 212 779 195 793 q 178 807 178 818 q 178 844 220 844 q 280 844 346 759 q 411 674 411 547 z"},"&":{"x_min":0,"x_max":660,"ha":660,"o":"m 541 80 q 588 80 604 76 q 621 72 621 61 q 621 26 533 26 q 445 26 352 112 q 194 15 120 15 q 86 15 54 46 q 22 76 22 115 q 22 147 76 196 q 120 236 159 268 q 198 299 201 302 q 210 309 218 315 q 187 396 187 470 q 187 543 238 600 q 290 657 368 657 q 430 657 456 624 q 481 590 481 543 q 481 496 428 435 q 374 374 284 300 q 314 232 356 183 q 401 213 462 258 q 588 351 598 351 q 620 351 620 330 q 620 315 552 257 q 484 199 397 141 q 468 80 541 80 z m 265 353 q 338 414 378 462 q 419 509 419 547 q 419 605 358 605 q 312 605 280 562 q 248 520 248 465 q 248 410 265 353 z m 241 264 q 124 170 104 145 q 83 120 83 106 q 83 91 94 81 q 106 71 123 71 q 182 71 312 155 q 268 209 241 264 z"},"_":{"x_min":0,"x_max":602,"ha":602,"o":"m 533 25 q 533 12 484 9 q 401 4 335 4 q 269 3 181 -2 q 93 -8 83 -8 q 73 -7 64 4 q 55 16 55 29 q 55 42 134 51 q 212 60 314 60 q 417 60 486 51 q 533 45 533 25 z"},"v":{"x_min":0,"x_max":422,"ha":422,"o":"m 376 502 q 387 502 400 492 q 412 483 412 471 q 412 448 368 352 q 324 255 282 162 q 241 70 225 42 q 209 13 192 13 q 143 13 86 270 q 56 401 56 477 q 56 502 70 502 q 83 502 100 488 q 118 474 120 455 q 133 211 196 85 q 217 136 267 262 q 317 389 342 446 q 367 502 376 502 z"},"O":{"x_min":0,"x_max":610,"ha":610,"o":"m 227 75 q 281 75 350 138 q 420 202 470 293 q 519 384 519 464 q 519 544 483 596 q 447 648 409 648 q 371 648 324 608 q 276 569 232 509 q 188 449 157 368 q 126 288 126 220 q 126 152 157 114 q 188 75 227 75 z m 218 19 q 156 19 111 80 q 66 142 66 206 q 66 325 120 444 q 175 563 254 636 q 332 708 405 708 q 478 708 531 635 q 584 562 584 470 q 584 377 530 272 q 477 166 390 92 q 303 19 218 19 z"},"(":{"x_min":0,"x_max":489,"ha":489,"o":"m 359 -30 q 434 -62 434 -79 q 434 -98 406 -98 q 377 -98 338 -86 q 299 -73 254 -44 q 209 -14 172 27 q 134 68 109 132 q 84 196 84 286 q 84 375 122 474 q 161 573 216 642 q 271 710 332 763 q 392 816 438 842 q 483 868 498 868 q 513 868 525 856 q 537 844 537 834 q 537 823 516 806 q 494 790 460 764 q 425 739 384 706 q 342 673 300 627 q 258 581 224 528 q 189 476 168 406 q 146 337 146 268 q 146 198 168 146 q 189 94 221 63 q 253 32 290 8 q 327 -17 359 -30 z"},"C":{"x_min":0,"x_max":589,"ha":589,"o":"m 487 702 q 512 702 536 678 q 560 654 560 638 q 560 623 554 623 q 549 623 527 632 q 505 641 485 641 q 446 641 388 600 q 329 560 276 499 q 222 438 184 358 q 145 277 145 214 q 145 151 184 120 q 222 89 278 89 q 334 89 388 112 q 443 134 477 156 q 511 178 518 178 q 525 178 529 174 q 533 169 533 164 q 533 147 491 114 q 449 81 385 53 q 321 25 271 25 q 197 25 139 78 q 81 131 81 204 q 81 276 119 364 q 157 451 214 526 q 271 600 346 651 q 420 702 487 702 z"},"W":{"x_min":0,"x_max":780,"ha":780,"o":"m 515 704 q 618 704 674 612 q 730 521 730 383 q 730 293 700 210 q 669 127 618 76 q 567 24 510 24 q 444 24 416 116 q 390 198 381 333 q 355 300 313 242 q 271 185 233 134 q 148 22 118 22 q 104 22 92 45 q 80 68 80 100 q 80 133 110 356 q 140 580 140 669 q 140 704 160 704 q 174 704 192 686 q 211 667 211 648 q 211 629 196 536 q 145 221 134 99 q 202 206 284 305 q 367 404 394 404 q 414 404 427 354 q 440 305 446 245 q 452 185 468 136 q 484 86 510 86 q 575 86 622 180 q 670 274 670 392 q 670 475 638 552 q 622 588 596 611 q 570 634 542 634 q 514 634 492 652 q 471 670 471 683 q 471 704 515 704 z"},"A":{"x_min":0,"x_max":596,"ha":596,"o":"m 367 722 q 395 722 418 623 q 442 524 458 381 q 504 390 528 390 q 553 390 553 369 q 553 356 463 330 q 476 203 476 110 q 476 17 452 17 q 423 17 419 96 q 413 213 404 314 q 239 270 187 256 q 102 47 92 32 q 82 17 79 17 q 67 17 57 32 q 47 46 47 65 q 47 72 118 237 q 95 232 88 232 q 48 232 48 257 q 48 273 146 303 q 262 581 290 638 q 318 695 330 708 q 343 722 367 722 z m 215 324 q 327 354 399 369 q 381 533 354 645 q 281 485 215 324 z"},"f":{"x_min":0,"x_max":344,"ha":344,"o":"m 78 13 q 69 13 59 26 q 49 38 49 48 q 49 58 60 100 q 72 143 96 230 q 120 318 140 402 q 95 393 81 393 q 67 393 54 403 q 42 413 42 423 q 42 439 132 458 q 147 461 154 463 q 172 536 188 614 q 222 780 326 780 q 378 780 406 744 q 434 708 434 666 q 434 625 418 625 q 405 625 396 650 q 387 676 372 701 q 358 726 332 726 q 305 726 289 704 q 271 679 263 649 q 247 597 218 474 q 254 479 283 479 q 336 479 336 457 q 336 445 316 439 q 284 430 203 415 q 106 13 78 13 z"},"Q":{"x_min":0,"x_max":631,"ha":631,"o":"m 406 100 q 422 58 444 8 q 486 -92 486 -108 q 486 -121 468 -121 q 449 -121 420 -69 q 391 -17 360 66 q 292 23 225 23 q 158 23 114 75 q 70 127 70 213 q 70 299 102 392 q 133 484 182 552 q 230 619 290 662 q 349 704 402 704 q 478 704 532 632 q 587 560 587 468 q 587 375 536 272 q 485 168 406 100 z m 406 646 q 380 646 350 630 q 327 588 327 501 q 327 343 383 164 q 443 227 483 309 q 523 391 523 468 q 523 545 486 596 q 450 646 406 646 z m 340 124 q 268 340 268 485 q 268 539 285 581 q 219 515 173 414 q 127 312 127 216 q 127 152 157 114 q 187 76 233 76 q 279 76 340 124 z"},"w":{"x_min":0,"x_max":653,"ha":653,"o":"m 405 408 l 400 215 q 400 117 410 69 q 461 125 498 192 q 535 259 552 314 q 570 368 582 414 q 594 461 604 488 q 613 514 626 514 q 650 514 650 460 q 650 407 602 294 q 554 180 497 96 q 440 13 403 13 q 389 13 382 18 q 375 24 366 44 q 349 84 349 214 q 349 344 355 434 q 270 213 219 113 q 168 13 139 13 q 126 13 117 22 q 81 58 66 230 q 50 401 50 470 q 50 511 74 511 q 96 511 106 457 q 111 428 114 303 q 118 178 142 69 q 184 145 230 262 q 276 379 306 444 q 335 508 358 508 q 384 508 394 485 q 405 462 405 408 z"},"-":{"x_min":0,"x_max":420,"ha":420,"o":"m 382 324 q 382 312 358 305 q 333 298 218 276 q 103 253 92 253 q 80 253 68 264 q 55 275 55 284 q 55 303 166 324 q 276 344 329 344 q 382 344 382 324 z"},"E":{"x_min":0,"x_max":604,"ha":604,"o":"m 216 669 q 243 701 428 701 q 612 701 612 682 q 612 668 576 662 q 541 657 489 653 q 424 648 414 648 q 403 647 382 646 q 362 644 318 638 q 273 632 268 631 l 268 621 q 268 553 223 392 l 254 391 q 306 391 362 396 q 419 401 452 401 q 486 401 486 392 q 486 340 218 340 q 211 340 208 341 q 145 143 145 104 q 145 89 154 80 q 164 72 178 72 q 305 72 443 112 q 490 125 497 125 q 509 125 509 107 q 509 80 398 46 q 288 12 195 12 q 149 12 116 36 q 83 59 83 91 q 83 137 114 238 q 146 338 178 451 q 209 564 209 641 q 209 661 212 664 q 216 668 216 669 z"},"s":{"x_min":0,"x_max":404,"ha":404,"o":"m 302 502 q 334 502 360 468 q 387 435 387 416 q 387 398 375 398 q 363 398 340 420 q 317 442 292 442 q 267 442 213 408 q 159 373 159 339 q 159 315 226 272 q 254 254 282 233 q 349 183 349 135 q 349 87 298 52 q 247 17 179 17 q 111 17 58 51 q 4 85 4 112 q 4 121 10 127 q 15 133 22 133 q 30 133 48 118 q 105 74 166 74 q 284 74 284 136 q 284 163 254 190 q 225 216 190 235 q 155 254 126 283 q 96 312 96 342 q 96 394 172 448 q 247 502 302 502 z"},">":{"x_min":0,"x_max":531,"ha":531,"o":"m 156 508 q 213 507 304 460 q 394 413 446 364 q 456 354 464 337 q 473 320 473 312 q 473 303 468 296 q 463 288 452 280 q 441 271 430 264 q 419 257 400 247 q 381 237 368 230 q 354 223 330 212 q 307 201 294 194 q 154 122 103 122 q 82 122 82 134 q 82 149 162 192 q 241 234 320 274 q 400 313 400 321 q 400 345 318 389 q 236 433 182 449 q 164 454 149 472 q 134 489 134 498 q 134 508 156 508 z"},"l":{"x_min":0,"x_max":233,"ha":233,"o":"m 208 720 q 208 506 108 136 q 76 17 62 17 q 52 17 41 32 q 30 46 30 57 q 30 68 60 186 q 90 305 120 470 q 150 634 150 757 q 150 772 152 777 q 154 782 164 782 q 173 782 190 762 q 208 741 208 720 z"},"8":{"x_min":0,"x_max":608,"ha":608,"o":"m 394 372 q 494 281 494 227 q 494 152 407 88 q 320 25 236 25 q 190 25 146 59 q 103 93 103 138 q 103 182 155 238 q 207 295 303 374 q 290 385 264 406 q 237 426 222 438 q 207 450 185 468 q 163 486 150 498 q 137 511 124 524 q 100 551 100 569 q 100 601 112 601 q 116 601 146 574 q 176 548 252 488 q 327 429 349 411 q 441 486 478 522 q 516 557 530 579 q 545 601 545 619 q 545 662 480 662 q 432 662 362 640 q 291 619 279 619 q 267 619 248 632 q 230 645 230 656 q 230 676 312 698 q 394 720 464 720 q 533 720 570 690 q 607 661 607 614 q 607 566 552 508 q 496 451 394 372 z m 430 235 q 430 266 348 336 q 206 226 178 180 q 165 157 165 136 q 165 114 185 96 q 205 78 235 78 q 299 78 364 126 q 430 175 430 235 z"},"\\":{"x_min":0,"x_max":600,"ha":600,"o":"m 510 -39 q 510 -47 498 -61 q 487 -75 479 -75 q 471 -75 447 -22 q 423 32 316 288 q 291 348 242 448 q 192 548 160 616 q 129 684 129 703 q 129 722 143 742 q 157 763 165 763 q 174 763 179 750 q 182 742 186 734 q 510 14 510 -39 z"},"e":{"x_min":0,"x_max":429,"ha":429,"o":"m 87 250 q 71 199 71 159 q 71 119 99 96 q 127 74 173 74 q 219 74 271 93 q 323 112 330 112 q 348 112 348 96 q 348 76 289 46 q 230 17 181 17 q 112 17 64 60 q 15 104 15 174 q 15 243 51 320 q 87 397 145 450 q 203 502 260 502 q 316 502 362 450 q 407 397 407 344 q 407 292 354 262 q 301 231 232 231 q 163 231 87 250 z m 267 446 q 222 446 178 402 q 133 358 104 292 q 162 278 220 278 q 277 278 314 298 q 350 317 350 348 q 350 380 323 413 q 296 446 267 446 z"},"b":{"x_min":0,"x_max":502,"ha":502,"o":"m 383 507 q 430 507 458 464 q 487 420 487 352 q 487 284 450 203 q 412 122 352 68 q 291 14 232 14 q 152 14 92 99 q 68 17 58 17 q 48 17 36 31 q 24 45 24 62 q 24 80 54 185 q 85 290 116 448 q 147 605 147 752 q 147 769 150 776 q 154 782 166 782 q 178 782 192 760 q 206 739 206 715 q 206 553 148 311 q 270 507 383 507 z m 113 152 q 158 72 226 72 q 293 72 358 162 q 424 252 424 358 q 424 445 377 445 q 317 445 241 357 q 165 269 113 152 z"},"%":{"x_min":0,"x_max":835,"ha":835,"o":"m 655 400 q 698 400 729 357 q 760 314 760 246 q 760 159 700 88 q 640 16 576 16 q 537 16 507 53 q 477 90 477 136 q 477 244 534 322 q 592 400 655 400 z m 585 73 q 620 73 661 126 q 702 180 702 233 q 702 286 688 316 q 673 345 651 345 q 616 345 576 281 q 535 217 535 145 q 535 116 548 94 q 561 73 585 73 z m 232 12 q 209 -16 202 -16 q 195 -16 187 -3 q 179 10 179 18 q 179 26 194 52 q 210 77 250 138 q 291 198 332 257 q 482 473 607 653 q 522 599 436 599 q 405 599 377 608 q 387 576 387 542 q 387 455 326 384 q 266 312 203 312 q 164 312 134 349 q 103 386 103 432 q 103 541 160 618 q 218 696 282 696 q 297 696 307 692 q 317 687 334 677 q 370 655 414 655 q 458 655 512 676 q 567 698 606 720 q 645 742 653 742 q 661 742 674 722 q 686 703 686 684 q 686 666 648 607 q 609 548 536 450 q 464 351 436 310 q 409 270 378 224 q 348 179 330 152 q 311 124 290 93 q 268 62 256 45 q 244 28 232 12 z m 211 369 q 246 369 288 422 q 329 476 329 528 q 329 581 314 611 q 299 641 278 641 q 243 641 202 577 q 162 513 162 441 q 162 412 175 390 q 188 369 211 369 z"},"m":{"x_min":0,"x_max":783,"ha":783,"o":"m 667 502 q 693 502 715 466 q 737 430 737 356 q 737 281 694 149 q 652 17 617 17 q 601 17 601 37 q 601 57 620 108 q 640 158 660 228 q 680 297 680 366 q 680 435 654 435 q 639 435 626 424 q 613 413 605 405 q 597 397 586 381 q 574 365 565 353 q 556 341 541 318 q 526 295 516 279 q 505 263 486 234 q 468 204 457 188 q 446 172 422 126 q 366 17 350 17 q 342 17 333 27 q 324 37 324 48 q 324 60 338 96 q 352 132 370 172 q 387 212 401 270 q 415 328 415 379 q 415 402 402 418 q 388 435 378 435 q 368 435 360 432 q 353 429 344 422 q 335 414 327 406 q 319 397 308 382 q 296 367 286 354 q 277 341 263 320 q 249 298 238 281 q 226 264 208 236 q 190 208 172 182 q 155 156 126 109 q 69 17 62 17 q 51 17 38 32 q 26 46 26 56 q 26 65 28 77 q 31 89 36 108 q 41 126 46 144 q 61 189 78 250 q 95 310 102 378 q 108 447 110 475 q 111 503 123 503 q 137 503 151 484 q 165 466 165 445 q 165 338 93 132 q 214 345 276 424 q 337 502 385 502 q 408 502 439 464 q 470 425 470 378 q 470 332 449 260 q 525 396 574 449 q 624 502 667 502 z"},"#":{"x_min":0,"x_max":589,"ha":589,"o":"m 130 -10 q 122 -10 112 2 q 102 14 102 27 q 102 40 128 147 q 95 141 83 141 q 71 141 60 153 q 50 165 50 174 q 50 192 144 209 q 188 391 204 465 q 153 457 142 457 q 131 457 121 469 q 111 481 111 490 q 111 510 217 527 q 239 639 239 667 l 239 700 q 239 714 243 716 q 247 717 254 717 q 262 717 280 698 q 298 679 298 652 q 298 624 283 537 q 380 548 439 552 q 455 638 455 666 l 455 700 q 455 714 458 716 q 462 717 470 717 q 478 717 496 698 q 514 679 514 650 q 514 620 502 557 q 556 559 564 559 q 609 559 609 536 q 609 527 586 520 q 562 514 491 504 q 473 413 428 240 q 479 243 503 243 q 548 243 548 221 q 548 211 522 204 q 496 197 414 186 l 389 89 q 363 -10 344 -10 q 334 -10 326 3 q 317 16 317 28 q 317 39 352 177 l 191 156 l 173 91 q 145 -10 130 -10 z m 427 495 l 270 475 q 250 380 208 219 q 267 227 366 235 q 406 391 427 495 z"},",":{"x_min":0,"x_max":210,"ha":210,"o":"m 148 30 q 148 -25 98 -88 q 48 -150 15 -150 q 0 -150 0 -140 q 0 -130 13 -114 q 26 -97 42 -81 q 58 -65 71 -38 q 84 -12 84 15 q 84 31 64 43 q 43 55 43 67 q 43 79 54 95 q 65 111 79 111 q 106 111 127 87 q 148 63 148 30 z"},"n":{"x_min":0,"x_max":521,"ha":521,"o":"m 386 502 q 412 502 444 464 q 475 425 475 383 q 475 320 442 220 q 410 121 386 69 q 361 17 340 17 q 324 17 324 34 q 324 51 332 78 q 341 104 358 150 q 417 307 417 379 q 417 402 404 418 q 390 435 380 435 q 371 435 363 432 q 355 428 346 420 q 336 412 328 404 q 319 395 306 379 q 294 363 285 350 q 276 338 260 316 q 245 293 235 278 q 195 215 175 186 q 155 156 126 109 q 69 17 62 17 q 51 17 38 32 q 26 46 26 56 q 26 66 34 92 q 67 198 76 239 q 106 367 106 456 q 106 503 124 503 q 138 503 152 484 q 166 466 166 435 q 166 404 144 309 q 123 214 97 143 q 213 342 277 422 q 341 502 386 502 z"},"h":{"x_min":0,"x_max":522,"ha":522,"o":"m 148 745 q 148 767 152 774 q 156 782 169 782 q 182 782 196 760 q 210 738 210 714 q 210 634 182 470 q 153 305 93 136 q 212 344 277 423 q 342 502 389 502 q 413 502 444 462 q 476 423 476 375 q 476 327 444 226 q 412 126 388 72 q 363 17 341 17 q 325 17 325 34 q 325 52 334 80 q 343 109 360 156 q 417 311 417 377 q 417 399 404 414 q 390 430 378 430 q 349 430 312 385 q 276 340 236 280 q 196 219 192 214 q 189 209 184 201 q 179 193 166 174 q 153 154 124 107 q 68 17 62 17 q 52 17 39 32 q 26 46 26 58 q 26 71 38 116 q 87 288 106 386 q 148 599 148 745 z"},"z":{"x_min":0,"x_max":418,"ha":418,"o":"m 54 471 q 54 502 221 502 q 306 502 340 480 q 356 470 368 451 q 380 432 380 416 q 380 381 332 330 q 284 279 227 238 q 74 126 74 100 q 74 76 111 76 q 174 76 263 86 q 352 96 366 96 q 380 96 386 94 q 393 91 393 82 q 393 57 286 37 q 180 17 109 17 q 68 17 36 44 q 5 71 5 97 q 5 123 55 171 q 105 219 165 264 q 225 308 275 353 q 325 398 325 418 q 325 442 209 442 q 187 442 148 436 q 110 431 96 431 q 82 431 68 444 q 54 458 54 471 z"},"B":{"x_min":0,"x_max":644,"ha":644,"o":"m 222 634 l 193 633 q 177 633 163 647 q 149 661 149 672 q 149 684 190 694 q 232 703 288 703 q 428 703 500 664 q 571 625 571 559 q 571 422 336 378 l 360 378 q 457 378 518 340 q 580 301 580 250 q 580 162 454 92 q 329 22 165 22 q 95 22 51 48 q 7 75 7 106 q 7 125 18 125 q 24 125 36 115 q 75 83 120 78 q 104 94 104 127 q 104 142 133 230 q 221 495 221 625 q 221 632 222 634 z m 351 645 q 318 645 255 638 q 280 615 280 592 q 280 555 235 384 q 247 395 298 412 q 350 428 368 434 q 387 441 418 455 q 448 469 464 482 q 507 515 507 555 q 507 595 461 620 q 415 645 351 645 z m 146 76 q 284 76 399 131 q 514 186 514 254 q 514 289 438 313 q 363 337 276 337 q 261 337 248 346 q 234 354 230 364 q 223 338 208 286 q 194 235 187 209 q 155 97 137 76 z"},"K":{"x_min":0,"x_max":585,"ha":585,"o":"m 544 626 q 365 466 267 338 q 267 294 288 242 q 309 190 348 159 q 388 128 436 106 q 484 83 511 68 q 538 52 538 36 q 538 23 506 23 q 475 23 430 40 q 386 58 340 90 q 295 121 260 175 q 226 229 218 293 q 173 234 120 71 q 105 23 99 23 q 89 23 78 38 q 68 53 68 76 q 68 98 136 354 q 205 611 205 675 q 205 693 208 698 q 210 704 222 704 q 233 704 245 682 q 257 660 257 635 q 257 568 189 324 q 279 454 400 578 q 521 702 547 702 q 566 702 578 694 q 590 687 590 676 q 590 666 544 626 z"},"R":{"x_min":0,"x_max":575,"ha":575,"o":"m 87 20 q 77 20 66 34 q 54 47 54 70 q 54 92 114 312 q 173 531 180 612 q 171 617 164 628 q 156 639 156 649 q 156 669 218 688 q 281 708 338 708 q 427 708 484 674 q 540 640 540 570 q 540 520 510 478 q 479 435 436 409 q 392 383 348 364 q 304 345 274 332 q 243 320 243 314 q 243 284 403 144 q 416 133 436 117 q 455 101 467 91 q 479 81 492 70 q 516 48 516 37 q 516 22 496 22 q 465 22 388 80 q 312 138 246 211 q 181 284 177 321 q 145 204 132 157 q 118 110 110 80 q 92 20 87 20 z m 482 570 q 482 647 360 647 q 309 647 233 621 q 237 612 237 597 q 237 535 181 335 q 192 350 243 374 q 294 399 346 422 q 397 446 440 487 q 482 528 482 570 z"},"T":{"x_min":0,"x_max":530,"ha":530,"o":"m 305 648 l 106 639 q 94 639 80 656 q 67 673 67 685 q 67 697 109 699 q 151 701 390 701 q 467 701 530 684 q 594 666 594 648 q 594 638 564 638 q 534 638 476 642 q 419 647 361 648 q 364 637 364 628 q 364 565 288 288 q 277 249 258 170 q 239 91 228 56 q 217 20 209 20 q 198 20 186 34 q 174 47 174 70 q 174 93 236 330 q 298 568 305 648 z"},"P":{"x_min":0,"x_max":539,"ha":539,"o":"m 549 543 q 549 343 173 269 q 98 14 88 14 q 78 14 66 28 q 54 42 54 64 q 54 86 119 313 q 184 540 189 619 q 170 630 170 650 q 170 669 232 688 q 294 708 352 708 q 435 708 492 662 q 549 617 549 543 z m 490 536 q 490 587 451 620 q 412 652 362 652 q 312 652 243 626 q 248 611 248 597 q 248 535 189 324 q 326 353 408 412 q 490 470 490 536 z"},"|":{"x_min":0,"x_max":320,"ha":320,"o":"m 234 773 q 234 790 237 796 q 240 803 252 803 q 264 803 279 782 q 294 760 294 736 q 294 682 197 296 q 189 265 161 146 q 99 -119 88 -119 q 77 -119 64 -104 q 52 -90 52 -70 q 52 -50 143 333 q 234 716 234 773 z"},"t":{"x_min":0,"x_max":352,"ha":352,"o":"m 197 425 q 175 337 144 234 q 112 132 112 105 q 112 78 139 78 q 187 78 237 98 q 287 119 291 119 q 305 119 305 107 q 305 83 250 50 q 194 17 148 17 q 103 17 77 38 q 51 60 51 88 q 51 116 64 164 q 77 212 100 288 q 124 363 137 413 q 82 403 70 403 q 59 403 47 414 q 35 425 35 434 q 35 452 152 475 q 169 558 169 615 q 169 645 184 645 q 196 645 212 628 q 229 612 229 592 q 229 571 211 484 q 281 494 310 494 q 362 494 362 473 q 362 461 338 454 z"},"M":{"x_min":0,"x_max":806,"ha":806,"o":"m 269 643 q 281 567 407 301 q 526 446 582 518 q 639 589 671 628 q 731 701 751 701 q 764 701 780 684 q 797 668 797 656 q 797 644 795 631 q 793 618 788 597 q 783 576 778 558 q 774 539 765 506 q 756 474 750 452 q 703 295 682 202 q 642 23 634 23 q 623 23 614 38 q 604 54 604 78 q 604 128 650 314 q 695 500 739 619 q 553 388 489 316 q 425 243 400 243 q 375 243 354 277 q 334 311 300 388 q 266 466 240 542 q 221 427 180 288 q 171 258 159 214 q 147 170 138 140 q 130 111 121 82 q 103 23 98 23 q 89 23 78 38 q 68 53 68 76 q 68 98 136 354 q 204 611 204 675 q 204 693 207 698 q 210 704 220 704 q 230 704 248 684 q 266 665 269 643 z"},"g":{"x_min":0,"x_max":471,"ha":471,"o":"m 422 289 q 422 246 379 186 q 345 110 298 -56 q 285 -104 267 -149 q 231 -240 156 -240 q 82 -240 36 -204 q -11 -169 -11 -130 q -11 -121 -5 -110 q 1 -99 9 -99 q 17 -99 30 -114 q 42 -128 54 -145 q 65 -162 91 -176 q 117 -191 143 -191 q 169 -191 184 -180 q 198 -169 208 -152 q 218 -136 228 -106 q 239 -77 246 -51 q 271 42 285 87 q 200 17 141 17 q 95 17 60 52 q 26 88 26 132 q 26 197 68 284 q 110 371 176 436 q 242 502 298 502 q 355 502 384 448 q 412 394 412 334 l 412 324 q 422 311 422 289 z m 138 76 q 199 76 268 139 q 336 202 373 300 q 366 312 361 338 q 349 418 328 435 q 319 443 305 443 q 262 443 209 385 q 156 327 120 252 q 84 178 84 128 q 84 105 100 90 q 116 76 138 76 z"},"j":{"x_min":0,"x_max":251,"ha":251,"o":"m 144 466 q 154 502 163 502 q 174 502 186 490 q 197 477 197 456 q 197 431 65 -97 q 47 -169 18 -204 q -11 -239 -60 -239 q -108 -239 -154 -198 q -200 -156 -200 -128 q -200 -120 -194 -108 q -187 -97 -182 -97 q -176 -97 -170 -103 q -163 -109 -150 -125 q -137 -141 -132 -147 q -96 -190 -62 -190 q -28 -190 -4 -134 q 21 -78 60 108 q 99 293 144 466 z m 255 588 q 234 588 209 612 q 184 636 184 653 q 184 670 196 683 q 207 696 221 696 q 235 696 253 662 q 271 628 271 613 q 271 598 266 593 q 260 588 255 588 z"},"i":{"x_min":0,"x_max":226,"ha":226,"o":"m 266 613 q 266 588 249 588 q 228 588 204 612 q 179 636 179 653 q 179 670 190 683 q 202 696 216 696 q 230 696 248 662 q 266 628 266 613 z m 196 462 q 196 395 94 73 q 75 17 55 17 q 45 17 38 26 q 31 34 31 46 q 31 59 40 92 q 50 126 65 178 q 80 229 88 262 q 97 296 108 340 q 118 385 124 409 q 129 433 136 458 q 143 482 150 492 q 156 502 165 502 q 174 502 185 488 q 196 475 196 462 z"},"y":{"x_min":0,"x_max":442,"ha":442,"o":"m 415 502 q 428 502 441 484 q 454 467 454 452 q 454 438 445 410 q 436 381 414 320 q 393 258 375 208 q 357 158 320 58 q 284 -43 262 -107 q 215 -239 131 -239 q 80 -239 30 -206 q -20 -174 -20 -137 q -20 -128 -12 -117 q -4 -106 2 -106 q 8 -106 26 -127 q 79 -191 129 -191 q 148 -191 166 -174 q 183 -157 202 -113 q 230 -51 286 117 q 218 17 139 17 q 93 17 62 52 q 31 88 31 141 q 31 194 58 284 q 86 374 120 438 q 154 502 174 502 q 184 502 194 490 q 203 479 203 466 q 203 454 176 399 q 148 344 120 266 q 92 189 92 125 q 92 102 106 86 q 121 71 142 71 q 179 71 220 112 q 260 153 294 218 q 355 338 397 472 q 402 499 406 500 q 411 502 415 502 z"},"@":{"x_min":0,"x_max":904,"ha":904,"o":"m 577 710 q 714 710 789 622 q 864 534 864 406 q 864 278 782 173 q 700 68 608 68 q 580 68 558 87 q 535 106 530 138 q 454 42 381 42 q 335 42 294 76 q 253 109 253 149 q 253 212 297 300 q 341 387 408 452 q 474 517 525 517 q 576 517 604 476 q 631 434 631 398 q 631 363 607 337 q 618 328 618 316 q 618 305 596 254 q 575 204 575 178 q 575 151 588 134 q 600 117 621 117 q 676 117 740 204 q 804 292 804 401 q 804 510 750 584 q 697 658 579 658 q 479 658 388 606 q 296 553 234 472 q 173 392 136 297 q 100 202 100 108 q 100 14 162 -50 q 223 -114 320 -114 q 392 -114 451 -101 q 510 -88 542 -75 q 575 -62 582 -62 q 590 -62 590 -70 q 590 -103 498 -134 q 405 -165 319 -165 q 192 -165 116 -84 q 41 -3 41 112 q 41 187 65 270 q 89 353 136 431 q 184 509 248 572 q 311 634 397 672 q 483 710 577 710 z m 585 345 q 584 351 584 380 q 584 410 572 439 q 559 468 535 468 q 497 468 442 410 q 388 351 348 274 q 309 198 309 148 q 309 124 330 108 q 352 91 376 91 q 429 91 486 160 q 543 228 567 327 q 570 342 585 345 z"},".":{"x_min":0,"x_max":237,"ha":237,"o":"m 146 -6 q 124 -6 96 22 q 68 51 68 70 q 68 88 82 105 q 95 122 110 122 q 124 122 145 77 q 166 32 166 9 q 166 5 159 0 q 152 -6 146 -6 z"},"p":{"x_min":0,"x_max":446,"ha":446,"o":"m -10 -48 q 91 355 91 474 q 91 491 94 498 q 97 504 109 504 q 121 504 138 482 q 156 459 156 438 q 156 417 139 345 q 186 423 239 465 q 292 507 340 507 q 388 507 414 458 q 439 409 439 338 q 439 268 383 190 q 327 112 251 65 q 175 18 114 18 q 82 18 63 29 q 52 -15 45 -50 q 38 -84 32 -112 q 25 -141 17 -172 q 0 -238 -12 -238 q -23 -238 -34 -224 q -44 -209 -44 -196 q -44 -183 -10 -48 z m 105 76 q 158 76 220 111 q 282 146 329 210 q 376 274 376 345 q 376 446 332 446 q 289 446 215 366 q 141 287 101 187 l 74 79 q 88 76 105 76 z"},"X":{"x_min":0,"x_max":645,"ha":645,"o":"m 595 704 q 603 704 617 690 q 631 677 631 672 q 631 666 630 663 q 628 660 623 656 q 618 651 614 648 q 582 625 566 608 q 550 591 526 560 q 501 530 482 506 q 462 481 421 428 q 353 341 352 340 q 382 294 436 218 q 489 141 514 101 q 539 61 539 42 q 539 23 526 23 q 503 23 440 101 q 377 179 310 288 q 154 92 122 58 q 90 23 66 23 q 58 23 48 32 q 39 40 39 46 q 39 51 41 55 q 43 59 45 62 q 47 64 63 80 q 136 155 280 338 q 144 572 144 686 q 144 704 156 704 q 178 704 196 691 q 215 678 215 661 q 215 562 320 390 q 487 608 530 656 q 573 704 595 704 z"},"*":{"x_min":0,"x_max":348,"ha":348,"o":"m 370 726 q 370 720 331 698 q 292 677 258 663 q 272 652 295 639 q 318 626 332 618 q 346 609 346 604 q 346 598 339 592 q 332 587 326 587 q 308 587 244 643 q 240 612 230 574 q 220 536 211 536 q 205 536 199 542 q 193 549 193 554 q 193 558 198 572 q 217 627 220 643 q 204 628 170 607 q 135 586 127 586 q 119 586 112 592 q 106 599 106 607 q 106 613 149 632 q 192 651 213 664 q 189 673 152 702 q 115 730 115 742 q 115 753 125 753 q 158 753 169 739 q 212 689 225 683 q 227 715 227 772 q 227 786 239 786 q 246 786 258 775 q 269 764 269 750 q 269 737 250 680 q 267 691 290 709 q 336 746 344 746 q 353 746 362 740 q 370 734 370 726 z"},"Y":{"x_min":0,"x_max":582,"ha":582,"o":"m 341 356 q 358 356 408 442 q 457 528 507 614 q 557 700 577 700 q 607 700 607 674 q 607 660 577 610 q 547 559 491 468 q 435 376 404 318 q 373 260 342 201 q 310 142 296 115 q 281 88 264 58 q 233 7 217 7 q 205 7 205 24 q 205 42 214 66 q 222 90 244 134 q 277 202 328 300 q 269 311 216 370 q 162 428 132 505 q 101 582 101 650 q 101 672 108 686 q 115 700 126 700 q 138 700 148 668 q 157 637 173 579 q 189 521 216 469 q 242 417 278 386 q 314 356 341 356 z"},"c":{"x_min":0,"x_max":422,"ha":422,"o":"m 305 502 q 349 502 376 470 q 404 439 404 419 q 404 399 392 399 q 380 399 354 420 q 329 442 309 442 q 269 442 218 393 q 167 344 132 276 q 96 208 96 166 q 96 123 120 100 q 143 76 186 76 q 228 76 265 88 q 302 100 324 112 q 345 123 355 123 q 369 123 369 107 q 369 86 303 52 q 237 17 182 17 q 126 17 80 58 q 35 98 35 162 q 35 227 76 308 q 117 388 182 445 q 246 502 305 502 z"},"!":{"x_min":0,"x_max":314,"ha":314,"o":"m 144 9 q 144 5 138 0 q 131 -5 125 -5 q 103 -5 76 23 q 48 51 48 69 q 48 87 62 104 q 75 122 89 122 q 103 122 124 77 q 144 32 144 9 z m 200 803 q 213 803 236 790 q 258 777 258 766 q 258 671 216 452 q 175 234 153 234 q 143 234 136 244 q 128 254 128 262 q 128 270 134 300 q 141 330 150 380 q 160 429 170 489 q 192 631 192 779 q 192 803 200 803 z"},"/":{"x_min":0,"x_max":392,"ha":392,"o":"m 26 -39 q 26 14 350 734 q 354 742 356 747 q 358 752 360 754 q 361 757 362 758 q 363 760 364 761 q 368 763 371 763 q 379 763 393 742 q 407 722 407 703 q 407 684 376 616 q 344 548 294 448 q 245 348 220 288 q 113 32 89 -22 q 65 -75 57 -75 q 49 -75 38 -61 q 26 -47 26 -39 z"},"[":{"x_min":0,"x_max":448,"ha":448,"o":"m 428 793 q 524 793 524 766 q 524 754 501 750 q 478 745 424 740 q 371 734 354 732 q 337 729 332 729 q 335 718 335 709 q 335 653 213 267 q 145 49 145 26 q 145 2 172 2 q 199 2 252 8 q 305 13 314 13 q 329 13 329 1 q 329 -22 277 -39 q 225 -56 184 -56 q 142 -56 112 -36 q 81 -17 81 18 q 81 52 178 364 q 275 677 275 742 q 275 753 278 759 l 278 761 q 281 793 428 793 z"},"6":{"x_min":0,"x_max":564,"ha":564,"o":"m 479 238 q 479 158 390 90 q 300 21 202 21 q 143 21 104 62 q 66 102 66 178 q 66 254 114 356 q 161 457 222 532 q 283 606 338 657 q 392 708 408 708 q 423 708 436 700 q 450 693 450 686 q 450 680 410 642 q 371 605 310 538 q 248 471 206 404 q 328 393 404 342 q 479 291 479 238 z m 207 76 q 275 76 345 126 q 415 175 415 233 q 415 277 352 315 q 288 353 183 365 q 126 258 126 158 q 126 117 148 96 q 171 76 207 76 z"},"r":{"x_min":0,"x_max":314,"ha":314,"o":"m 97 405 l 95 459 q 95 493 100 498 q 105 502 110 502 q 124 502 138 481 q 152 460 152 436 q 152 372 141 308 q 171 371 205 416 q 239 462 268 480 q 297 498 320 498 q 364 498 364 480 q 364 467 333 454 q 274 431 238 382 q 202 334 167 258 q 132 181 114 121 q 95 61 86 37 q 77 13 63 13 q 52 13 44 27 q 36 41 36 54 q 36 68 42 90 q 70 182 84 248 q 97 313 97 405 z"},"2":{"x_min":0,"x_max":580,"ha":580,"o":"m 491 108 q 491 84 345 54 q 199 23 137 23 q 109 23 84 42 q 59 61 59 87 q 59 103 98 135 q 136 167 190 208 q 245 250 300 300 q 354 349 392 414 q 431 479 431 535 q 431 591 408 622 q 384 653 346 653 q 308 653 276 634 q 243 615 222 596 q 201 577 196 577 q 183 577 170 585 q 156 593 156 605 q 156 631 218 672 q 280 714 333 714 q 404 714 449 666 q 494 619 494 554 q 494 488 466 426 q 437 365 382 305 q 282 196 107 74 q 134 76 278 99 q 421 122 446 122 q 472 122 482 120 q 491 118 491 108 z"},"{":{"x_min":0,"x_max":399,"ha":399,"o":"m 489 736 q 489 709 478 688 q 467 667 453 667 q 442 667 442 692 q 442 718 440 732 q 439 747 432 762 q 419 791 369 791 q 319 791 282 754 q 244 718 244 660 q 244 602 266 533 q 289 464 289 434 q 289 405 260 377 q 230 349 183 349 q 176 349 160 351 q 169 328 169 298 q 169 268 141 200 q 113 131 113 75 q 113 19 144 -6 q 174 -32 230 -32 q 285 -32 285 -48 q 285 -64 260 -74 q 235 -84 201 -84 q 135 -84 92 -38 q 49 8 49 65 q 49 122 84 200 q 118 279 118 328 q 118 342 101 373 q 72 392 72 412 q 72 432 83 432 q 89 432 117 415 q 145 398 171 398 q 197 398 216 414 q 234 431 234 454 q 234 478 212 553 q 189 628 189 682 q 189 754 242 804 q 296 853 358 853 q 421 853 455 820 q 489 787 489 736 z"},"9":{"x_min":0,"x_max":478,"ha":478,"o":"m 456 514 q 456 491 431 426 q 406 360 388 306 q 370 252 354 170 q 339 88 331 48 q 323 9 313 9 q 285 9 285 63 q 285 148 363 388 q 324 344 278 316 q 233 287 186 287 q 140 287 106 322 q 71 358 71 412 q 71 467 110 538 q 149 608 212 659 q 276 710 330 710 q 383 710 412 678 q 440 647 440 612 q 440 576 431 553 q 456 552 456 514 z m 270 367 l 300 391 q 312 401 328 424 q 345 446 352 455 q 359 464 374 488 q 390 513 392 516 q 374 518 374 532 q 374 541 380 564 q 386 586 386 598 q 386 650 336 650 q 267 650 197 560 q 127 469 127 404 q 127 375 146 358 q 166 342 190 342 q 215 342 234 348 q 252 353 270 367 z"}," ":{"x_min":0,"x_max":410,"ha":410,"o":""},"I":{"x_min":0,"x_max":311,"ha":311,"o":"m 208 675 q 208 693 210 698 q 213 704 225 704 q 237 704 252 682 q 266 660 266 635 q 266 568 192 296 q 184 268 172 220 q 160 173 152 144 q 144 115 135 84 q 117 22 111 22 q 101 22 89 36 q 77 51 77 72 q 77 93 142 352 q 208 611 208 675 z"},"H":{"x_min":0,"x_max":680,"ha":680,"o":"m 122 298 q 111 298 100 307 q 90 316 90 329 q 90 339 143 352 q 213 614 213 678 q 213 695 216 701 q 219 707 230 707 q 240 707 254 684 q 268 662 268 637 q 268 580 211 368 q 389 402 517 411 q 571 616 571 678 q 571 695 574 701 q 577 707 588 707 q 599 707 614 685 q 628 663 628 628 q 628 594 581 411 q 624 408 624 391 q 624 376 569 367 q 544 282 522 195 q 500 108 491 78 q 473 19 464 19 q 455 19 444 34 q 434 50 434 73 q 434 96 504 358 q 376 342 349 338 q 322 333 195 308 q 185 273 163 190 q 141 108 132 78 q 114 19 106 19 q 98 19 86 34 q 75 49 75 73 q 75 97 129 298 z"},"4":{"x_min":0,"x_max":554,"ha":554,"o":"m 454 507 q 465 507 482 491 q 498 475 498 457 q 498 349 448 170 q 397 -8 365 -8 q 351 -8 351 12 q 351 31 362 64 q 401 187 416 260 q 312 206 221 206 q 165 206 126 239 q 86 272 86 333 q 86 394 142 486 q 199 579 260 643 q 322 707 342 707 q 373 707 373 685 q 373 671 260 549 q 218 503 183 442 q 148 382 148 336 q 148 260 223 260 q 265 260 310 274 q 377 294 399 302 q 421 310 425 311 q 437 393 437 474 q 437 507 454 507 z"},"~":{"x_min":0,"x_max":598,"ha":598,"o":"m 244 425 q 267 425 288 407 q 309 389 324 367 q 338 345 360 326 q 381 308 405 307 q 430 308 450 324 q 469 339 478 357 q 504 405 521 405 q 536 405 536 378 q 536 334 496 290 q 456 247 401 247 q 362 247 326 276 q 290 306 244 373 q 186 348 133 274 q 118 253 106 253 q 84 253 84 274 q 85 319 139 372 q 193 425 244 425 z"},"D":{"x_min":0,"x_max":633,"ha":633,"o":"m 173 707 q 260 707 358 660 q 457 612 528 528 q 598 445 598 356 q 598 293 517 211 q 436 129 329 72 q 222 15 150 15 q 130 15 112 41 q 95 67 95 101 q 95 135 153 348 q 211 560 211 619 q 211 637 212 642 q 183 650 168 663 q 153 676 153 689 q 153 707 173 707 z m 534 358 q 534 438 450 521 q 365 604 255 633 q 268 612 268 589 q 268 566 266 554 q 265 541 261 522 q 257 504 253 488 q 249 471 241 442 q 233 413 227 390 q 221 368 210 327 q 198 286 190 256 q 166 175 155 77 q 210 79 280 113 q 349 147 404 192 q 458 237 496 284 q 534 330 534 358 z"},"^":{"x_min":0,"x_max":422,"ha":422,"o":"m 351 581 q 351 566 339 566 q 318 566 284 628 q 251 690 224 758 q 182 715 144 639 q 118 587 109 581 q 100 575 94 575 q 77 575 77 600 q 77 625 103 680 q 129 736 162 780 q 194 825 212 825 q 249 825 261 808 q 270 797 283 758 q 296 719 324 653 q 351 587 351 581 z"},"0":{"x_min":0,"x_max":493,"ha":493,"o":"m 383 470 q 383 661 328 661 q 304 661 270 616 q 235 571 203 505 q 171 439 148 356 q 126 272 126 203 q 126 77 202 77 q 233 77 276 140 q 318 202 350 296 q 383 391 383 470 z m 62 185 q 62 304 104 430 q 147 555 212 636 q 276 716 336 716 q 445 716 445 474 q 445 375 406 268 q 368 161 309 90 q 250 20 198 20 q 145 20 104 68 q 62 117 62 185 z"},"F":{"x_min":0,"x_max":512,"ha":512,"o":"m 197 334 l 191 334 q 180 291 162 220 q 143 150 138 129 q 110 17 100 17 q 90 17 77 36 q 64 54 64 66 q 64 77 125 312 q 186 547 189 641 q 189 656 197 668 q 215 701 402 701 q 588 701 588 680 q 588 668 556 664 q 525 659 504 657 q 482 655 442 652 q 402 648 336 641 q 269 634 245 633 q 246 628 246 619 q 246 559 204 387 q 287 387 350 392 q 412 397 438 397 q 464 397 464 388 q 464 377 432 364 q 401 352 338 343 q 274 334 197 334 z"},"`":{"x_min":0,"x_max":189,"ha":189,"o":"m 176 693 q 179 688 179 682 q 179 675 172 669 q 166 663 159 663 q 152 663 142 670 q 132 676 113 692 q 94 707 86 714 q 77 720 66 728 q 55 736 50 740 q 44 745 36 751 q 28 757 24 761 q 21 765 17 770 q 13 774 12 778 q 10 782 10 791 q 10 800 21 814 q 32 828 42 828 q 51 828 56 826 q 60 823 66 817 q 73 811 78 804 q 84 798 94 786 q 105 775 113 766 q 121 757 130 748 q 138 739 143 734 q 148 729 154 722 q 160 716 163 712 q 166 709 169 705 q 172 701 174 698 q 175 696 176 693 z"},"k":{"x_min":0,"x_max":456,"ha":456,"o":"m 407 34 q 407 17 379 17 q 333 17 274 68 q 216 119 216 181 l 216 192 q 130 81 102 49 q 73 17 61 17 q 49 17 40 34 q 30 50 30 66 q 30 82 62 196 q 94 309 126 468 q 158 627 158 755 q 158 771 162 776 q 166 782 178 782 q 190 782 202 760 q 215 739 215 715 q 215 495 91 107 q 261 356 357 458 q 399 502 412 502 q 424 502 435 490 q 446 479 446 470 q 446 462 418 433 q 390 404 356 369 q 322 334 294 286 q 266 237 266 198 q 266 159 288 130 q 310 100 336 85 q 363 70 385 56 q 407 43 407 34 z"},"u":{"x_min":0,"x_max":479,"ha":479,"o":"m 393 486 q 393 502 408 502 q 420 502 433 484 q 446 465 446 445 q 446 439 337 59 q 325 17 309 17 q 287 17 287 50 q 287 83 320 187 q 279 108 226 62 q 174 17 128 17 q 82 17 50 52 q 19 88 19 130 q 19 192 46 282 q 74 373 108 438 q 143 502 163 502 q 174 502 182 490 q 191 479 191 468 q 191 456 164 401 q 136 346 108 268 q 80 190 80 125 q 80 102 94 86 q 109 71 130 71 q 180 71 238 148 q 297 226 336 316 q 375 404 392 480 q 393 484 393 486 z"},"]":{"x_min":0,"x_max":411,"ha":411,"o":"m 362 713 l 362 702 q 362 623 312 379 q 263 135 228 -4 q 219 -40 198 -56 q 176 -73 130 -73 q 85 -73 33 -54 q -19 -34 -19 -13 q -19 -1 -6 -1 q 8 -1 58 -8 q 108 -15 133 -15 q 158 -15 164 11 q 183 82 241 350 q 299 617 299 668 q 299 674 301 684 q 278 687 230 687 q 126 687 126 709 q 126 728 175 738 q 224 747 277 747 q 362 747 362 713 z"},"U":{"x_min":0,"x_max":599,"ha":599,"o":"m 495 558 q 495 592 492 634 q 488 677 488 688 q 488 698 491 701 q 494 704 502 704 q 520 704 539 680 q 558 655 558 608 q 558 346 462 178 q 366 10 242 10 q 180 10 140 64 q 99 118 99 191 q 99 264 142 434 q 185 603 185 675 q 185 693 188 698 q 190 704 201 704 q 212 704 228 682 q 245 660 245 625 q 245 590 202 424 q 158 258 158 200 q 158 142 183 104 q 208 66 246 66 q 285 66 328 106 q 370 145 408 210 q 445 274 470 368 q 495 461 495 558 z"},"o":{"x_min":0,"x_max":452,"ha":452,"o":"m 294 457 q 211 441 158 350 q 105 259 105 160 q 105 85 156 67 q 212 73 258 120 q 304 168 328 228 q 351 288 351 334 q 351 380 336 412 q 320 445 294 457 z m 410 337 q 410 219 333 118 q 256 17 155 17 q 105 17 75 62 q 45 107 45 178 q 45 250 78 326 q 111 401 168 452 q 226 502 284 502 q 343 502 376 452 q 410 403 410 337 z"},"N":{"x_min":0,"x_max":702,"ha":702,"o":"m 615 708 q 627 708 642 689 q 656 670 656 652 q 656 559 632 411 q 609 263 569 141 q 529 19 490 19 q 464 19 444 58 q 424 98 344 291 q 263 484 241 546 q 198 385 158 230 q 118 74 110 46 q 102 19 96 19 q 88 19 76 34 q 64 49 64 72 q 64 95 133 356 q 202 616 202 679 q 202 697 204 702 q 207 708 216 708 q 225 708 240 690 q 256 673 263 643 q 270 613 354 409 q 437 205 491 88 q 534 197 559 333 q 584 469 588 535 q 592 601 592 654 q 592 708 615 708 z"},"+":{"x_min":0,"x_max":600,"ha":600,"o":"m 591 356 q 591 340 518 324 q 444 308 335 298 q 329 264 321 218 q 313 173 309 152 q 305 131 300 108 q 291 69 280 69 q 270 69 262 84 q 253 98 253 112 q 253 126 256 143 q 258 160 265 204 q 272 247 279 294 q 198 287 109 287 q 89 287 72 302 q 55 317 55 334 q 55 351 81 351 q 153 349 196 349 q 239 349 287 352 q 291 381 310 534 q 313 562 327 562 q 338 562 357 541 q 376 520 376 504 q 376 489 347 356 q 383 359 429 364 q 530 375 549 375 q 591 375 591 356 z"},"G":{"x_min":0,"x_max":618,"ha":618,"o":"m 464 704 q 491 704 516 678 q 540 651 540 635 q 540 619 530 619 q 526 619 506 628 q 486 638 466 638 q 406 638 325 569 q 244 500 184 395 q 125 290 125 200 q 125 150 156 115 q 187 80 230 80 q 273 80 335 138 q 397 195 463 296 q 394 273 368 273 q 341 273 325 285 q 309 297 309 307 q 309 335 461 335 q 484 335 504 312 q 523 290 523 269 q 523 224 471 66 q 419 -93 398 -93 q 377 -93 377 -64 q 377 -38 413 65 q 449 168 465 222 q 415 127 349 72 q 283 16 224 16 q 165 16 112 72 q 59 129 59 195 q 59 292 122 412 q 186 532 283 618 q 380 704 464 704 z"},"q":{"x_min":0,"x_max":450,"ha":450,"o":"m 379 -98 q 386 -98 392 -103 q 398 -108 398 -115 q 398 -130 364 -148 q 331 -166 297 -189 q 263 -212 244 -226 q 224 -239 215 -239 q 206 -239 196 -222 q 187 -205 187 -187 q 187 -169 232 -47 q 277 75 291 113 q 253 71 204 44 q 156 17 118 17 q 80 17 45 54 q 10 92 10 132 q 10 197 55 284 q 100 372 169 437 q 238 502 298 502 q 337 502 370 470 q 404 439 404 418 q 404 398 392 398 q 379 398 353 421 q 327 444 305 444 q 261 444 204 386 q 146 328 106 252 q 67 177 67 128 q 67 108 82 92 q 98 76 117 76 q 180 76 252 140 q 324 205 352 309 q 356 323 370 323 q 383 323 394 314 q 405 305 405 292 q 405 278 389 231 q 373 184 328 62 q 283 -59 247 -164 q 341 -98 379 -98 z"},"d":{"x_min":0,"x_max":478,"ha":478,"o":"m 336 17 q 325 17 314 30 q 303 42 303 56 q 303 71 317 134 q 274 83 224 50 q 174 17 128 17 q 82 17 50 54 q 17 90 17 134 q 17 179 40 242 q 62 305 98 363 q 133 421 184 462 q 235 502 286 502 q 363 502 386 400 q 436 612 445 752 q 445 769 448 776 q 451 782 463 782 q 475 782 490 760 q 504 739 504 711 q 504 683 482 559 q 459 435 406 226 q 352 17 336 17 z m 290 443 q 245 443 194 390 q 143 338 110 264 q 77 189 77 126 q 77 103 96 87 q 115 71 137 71 q 183 71 254 134 q 334 206 359 293 q 359 357 341 400 q 323 443 290 443 z"},"1":{"x_min":0,"x_max":321,"ha":321,"o":"m 140 74 q 121 4 105 4 q 96 4 88 19 q 80 34 80 54 q 80 74 101 154 q 122 233 152 378 q 181 522 197 681 q 200 712 216 712 q 232 712 244 692 q 257 672 257 642 q 257 612 243 517 q 229 422 214 362 q 199 303 184 241 q 169 179 160 145 q 151 111 140 74 z"},"5":{"x_min":0,"x_max":553,"ha":553,"o":"m 598 680 q 598 665 412 642 q 339 632 323 629 q 302 625 271 570 q 240 516 240 492 q 240 467 274 436 q 307 405 348 378 q 388 352 422 316 q 455 280 455 246 q 455 167 380 96 q 305 26 220 26 q 155 26 103 73 q 51 120 51 159 q 51 178 63 178 q 65 178 89 153 q 113 128 148 104 q 183 79 213 79 q 268 79 331 130 q 394 182 394 234 q 394 285 317 336 q 285 358 253 380 q 221 403 198 433 q 176 463 176 500 q 176 536 221 604 q 266 673 291 680 q 314 689 368 696 q 421 703 478 703 q 536 703 567 698 q 598 694 598 680 z"}}}
